<svg viewBox="0 0 17 10" fill="none" xmlns="http://www.w3.org/2000/svg">
	<path
		fill-rule="evenodd"
		clip-rule="evenodd"
		d="M6.48384 4.76769C6.48384 3.88968 7.20921 3.17854 8.10477 3.17854C9.00034 3.17854 9.7257 3.88968 9.7257 4.76769C9.7257 5.64569 9.00034 6.35683 8.10477 6.35683C7.20921 6.35683 6.48384 5.64569 6.48384 4.76769ZM13.778 7.94598H2.43152C1.98414 7.94598 1.62105 7.59001 1.62105 7.15141V2.38397C1.62105 1.94536 1.98414 1.58939 2.43152 1.58939H13.778C14.2254 1.58939 14.5885 1.94536 14.5885 2.38397V7.15141C14.5885 7.59001 14.2254 7.94598 13.778 7.94598ZM0.00012207 1.58939V7.94598C0.00012207 8.82398 0.725488 9.53513 1.62105 9.53513H14.5885C15.4841 9.53513 16.2094 8.82398 16.2094 7.94598V1.58939C16.2094 0.711388 15.4841 0.000244141 14.5885 0.000244141H1.62105C0.725488 0.000244141 0.00012207 0.711388 0.00012207 1.58939Z"
		fill="#F5F5F5"
	/>
</svg>
