<svg
	viewBox="0 0 31 31"
	fill="none"
	xmlns="http://www.w3.org/2000/svg"
>
	<path
		d="M15.7272 19.5502C18.08 19.5502 19.9873 17.7369 19.9873 15.5002C19.9873 13.2634 18.08 11.4502 15.7272 11.4502C13.3744 11.4502 11.467 13.2634 11.467 15.5002C11.467 17.7369 13.3744 19.5502 15.7272 19.5502Z"
		stroke="#829887"
		stroke-width="3"
	/>
	<path
		d="M18.2342 2.20577C17.7122 2.00024 17.0506 2.00024 15.7273 2.00024C14.404 2.00024 13.7424 2.00024 13.2204 2.20577C12.5245 2.4798 11.9716 3.00543 11.6834 3.66699C11.5518 3.969 11.5003 4.32022 11.4801 4.83253C11.4505 5.58541 11.0444 6.2823 10.3581 6.659C9.67175 7.03569 8.83386 7.02162 8.13321 6.66957C7.65644 6.43 7.31075 6.29678 6.96984 6.25412C6.22304 6.16065 5.46778 6.35304 4.8702 6.78896C4.42201 7.11591 4.09118 7.66066 3.42953 8.75015C2.76788 9.83965 2.43705 10.3844 2.36331 10.9169C2.265 11.6268 2.46737 12.3448 2.92591 12.913C3.1352 13.1723 3.42934 13.3902 3.88587 13.6629C4.557 14.0638 4.98882 14.7468 4.98877 15.5002C4.98873 16.2537 4.55693 16.9365 3.88586 17.3373C3.42927 17.6102 3.13508 17.8282 2.92577 18.0875C2.46722 18.6556 2.26485 19.3735 2.36318 20.0835C2.43691 20.6159 2.76773 21.1608 3.42939 22.2502C4.09105 23.3397 4.42188 23.8846 4.87006 24.2114C5.46764 24.6473 6.2229 24.8397 6.9697 24.7463C7.31058 24.7036 7.65626 24.5704 8.133 24.3309C8.83369 23.9788 9.67164 23.9647 10.358 24.3414C11.0444 24.7182 11.4505 25.415 11.4801 26.1681C11.5003 26.6803 11.5518 27.0315 11.6834 27.3335C11.9716 27.995 12.5245 28.5207 13.2204 28.7948C13.7424 29.0002 14.404 29.0002 15.7273 29.0002C17.0506 29.0002 17.7122 29.0002 18.2342 28.7948C18.9301 28.5207 19.483 27.995 19.7712 27.3335C19.9028 27.0315 19.9543 26.6803 19.9745 26.1679C20.004 25.4151 20.4102 24.7182 21.0965 24.3414C21.7828 23.9646 22.6207 23.9788 23.3215 24.3309C23.7982 24.5704 24.1439 24.7035 24.4847 24.7461C25.2315 24.8397 25.9868 24.6473 26.5844 24.2114C27.0325 23.8844 27.3634 23.3397 28.025 22.2501C28.6867 21.1607 29.0176 20.6159 29.0913 20.0835C29.1896 19.3735 28.9872 18.6555 28.5287 18.0874C28.3194 17.828 28.0251 17.61 27.5686 17.3373C26.8976 16.9365 26.4658 16.2535 26.4658 15.5001C26.4658 14.7467 26.8976 14.064 27.5686 13.6632C28.0253 13.3903 28.3195 13.1724 28.5288 12.913C28.9873 12.3449 29.1897 11.6269 29.0914 10.917C29.0177 10.3845 28.6869 9.83973 28.0251 8.75024C27.3635 7.66075 27.0327 7.116 26.5845 6.78906C25.9869 6.35313 25.2316 6.16074 24.4848 6.25422C24.144 6.29688 23.7984 6.43008 23.3215 6.66962C22.6209 7.02169 21.7829 7.03577 21.0966 6.65904C20.4102 6.28232 20.004 5.58539 19.9745 4.83246C19.9543 4.32019 19.9028 3.96899 19.7712 3.66699C19.483 3.00543 18.9301 2.4798 18.2342 2.20577Z"
		stroke="#829887"
		stroke-width="3"
	/>
</svg>
