<svg
	viewBox="0 0 15 13"
	fill="none"
	xmlns="http://www.w3.org/2000/svg"
>
	<path
		d="M1.00012 8.08911C1.00012 7.74682 1.00012 7.57571 1.08051 7.44499C1.15122 7.32998 1.26405 7.23654 1.40283 7.17794C1.5606 7.11133 1.76714 7.11133 2.1802 7.11133H2.77024C3.1833 7.11133 3.38984 7.11133 3.54761 7.17794C3.68638 7.23654 3.79921 7.32998 3.86993 7.44499C3.95031 7.57571 3.95031 7.74682 3.95031 8.08911V11.0224C3.95031 11.3647 3.95031 11.5358 3.86993 11.6666C3.79921 11.7816 3.68638 11.875 3.54761 11.9336C3.38984 12.0002 3.1833 12.0002 2.77024 12.0002H2.1802C1.76714 12.0002 1.5606 12.0002 1.40283 11.9336C1.26405 11.875 1.15122 11.7816 1.08051 11.6666C1.00012 11.5358 1.00012 11.3647 1.00012 11.0224V8.08911Z"
		stroke="#F5F5F5"
		stroke-linecap="round"
		stroke-linejoin="round"
	/>
	<path
		d="M6.16284 1.97802C6.16284 1.63577 6.16284 1.46464 6.24323 1.33392C6.31397 1.21893 6.42674 1.12544 6.56554 1.06685C6.7233 1.00024 6.92982 1.00024 7.34292 1.00024H7.93296C8.34606 1.00024 8.55257 1.00024 8.71033 1.06685C8.84914 1.12544 8.96191 1.21893 9.03264 1.33392C9.11303 1.46464 9.11303 1.63577 9.11303 1.97802V11.0225C9.11303 11.3648 9.11303 11.5359 9.03264 11.6666C8.96191 11.7816 8.84914 11.875 8.71033 11.9336C8.55257 12.0002 8.34606 12.0002 7.93296 12.0002H7.34292C6.92982 12.0002 6.7233 12.0002 6.56554 11.9336C6.42674 11.875 6.31397 11.7816 6.24323 11.6666C6.16284 11.5359 6.16284 11.3648 6.16284 11.0225V1.97802Z"
		stroke="#F5F5F5"
		stroke-linecap="round"
		stroke-linejoin="round"
	/>
	<path
		d="M11.3258 5.64465C11.3258 5.30236 11.3258 5.13127 11.4062 5.00054C11.4769 4.88556 11.5897 4.79207 11.7285 4.73347C11.8863 4.66687 12.0928 4.66687 12.5059 4.66687H13.0959C13.509 4.66687 13.7155 4.66687 13.8733 4.73347C14.0121 4.79207 14.1249 4.88556 14.1956 5.00054C14.276 5.13127 14.276 5.30236 14.276 5.64465V11.0224C14.276 11.3647 14.276 11.5358 14.1956 11.6665C14.1249 11.7815 14.0121 11.875 13.8733 11.9336C13.7155 12.0002 13.509 12.0002 13.0959 12.0002H12.5059C12.0928 12.0002 11.8863 12.0002 11.7285 11.9336C11.5897 11.875 11.4769 11.7815 11.4062 11.6665C11.3258 11.5358 11.3258 11.3647 11.3258 11.0224V5.64465Z"
		stroke="#F5F5F5"
		stroke-linecap="round"
		stroke-linejoin="round"
	/>
</svg>
